<?xml version="1.0" encoding="iso-8859-1"?>
<!-- Generator: Adobe Illustrator 16.0.0, SVG Export Plug-In . SVG Version: 6.00 Build 0)  -->
<!-- Alle Icons sind unter einer Creative Commons Lizenz vom Typ Namensnennung - Weitergabe unter gleichen Bedingungen 3.0 Deutschland zugänglich.
 Um eine Kopie dieser Lizenz einzusehen, konsultieren Sie http://creativecommons.org/licenses/by-sa/3.0/de/ 
 oder wenden Sie sich brieflich an Creative Commons, Postfach 1866, Mountain View, California, 94042, USA. -->
<!DOCTYPE svg PUBLIC "-//W3C//DTD SVG 1.1//EN" "http://www.w3.org/Graphics/SVG/1.1/DTD/svg11.dtd">
<svg version="1.1" xmlns="http://www.w3.org/2000/svg" xmlns:xlink="http://www.w3.org/1999/xlink" x="69px" y="100px" width="100px"
	 height="80px" viewBox="69 100 229 170" style="enable-background:new 69 100 229 170;" xml:space="preserve">
<g id="fts_x5F_shutter_x5F_10">
##PLACEHOLDER##

        <path style="fill:none;stroke:#FFFFFF;stroke-width:5;stroke-miterlimit:5" d="M279.5,248.734c0,3.645-2.955,6.6-6.6,6.6H88.1
		c-3.646,0-6.6-2.955-6.6-6.6V129.934c0-3.645,2.955-6.6,6.6-6.6h184.8c3.645,0,6.6,2.956,6.6,6.6V248.734z"/>

		<!--
		<path style="fill:#FFFFFF;" d="M174.945,194.178c3.935,0,7.87,0,11.805,0c6.448,0,6.448-10,0-10c-3.935,0-7.87,0-11.805,0
				C168.497,184.178,168.497,194.178,174.945,194.178L174.945,194.178z"/> -->
	
		<line style="fill:none;stroke:#FFFFFF;stroke-width:5;stroke-miterlimit:5;" x1="180.719" y1="123.645" x2="180.719" y2="252.064"/>
		
        <path style="fill:#FFFFFF;stroke:#FFFFFF;stroke-width:5;stroke-miterlimit:5;" d="M286.666,124.713
		c0,0.509-3.164,0.922-7.066,0.922H81.733c-3.903,0-7.066-0.414-7.066-0.922V108.12c0-0.509,3.164-0.922,7.066-0.922H279.6
		c3.902,0,7.066,0.414,7.066,0.922V124.713z"/>


</g>
<g id="Ebene_1">
</g>
</svg>
