<?xml version="1.0" encoding="iso-8859-1"?>
<!-- Generator: handcrafted by mg, based on KNX-UF iconset by mfd -->
<!-- Alle Icons sind unter einer Creative Commons Lizenz vom Typ Namensnennung - Weitergabe unter gleichen Bedingungen 3.0 Deutschland zugänglich.
 Um eine Kopie dieser Lizenz einzusehen, konsultieren Sie http://creativecommons.org/licenses/by-sa/3.0/de/ 
 oder wenden Sie sich brieflich an Creative Commons, Postfach 1866, Mountain View, California, 94042, USA. -->
<svg version="1.1"
    xmlns="http://www.w3.org/2000/svg"
    xmlns:xlink="http://www.w3.org/1999/xlink" x="0px" y="0px" width="361px" height="361px" viewBox="65 68 230 233" style="enable-background:new 0 0 361 361;" xml:space="preserve">
	
	<!-- Sonne -->
	<g id="sun100" style="opacity:##SUN100##">
						<path style="fill:#D8C100;" d="M146.098,78.902c7.345,7.345,14.69,14.689,22.035,22.035c4.564,4.563,11.635-2.507,7.071-7.071
				c-7.345-7.345-14.69-14.689-22.035-22.035C148.605,67.268,141.535,74.338,146.098,78.902L146.098,78.902z"/>
									<path style="fill:#D8C100;" d="M99.02,146.338c19.504,0,39.008,0,58.512,0c6.449,0,6.449-10,0-10c-19.504,0-39.008,0-58.512,0
				C92.571,136.338,92.571,146.338,99.02,146.338L99.02,146.338z"/>
									<path style="fill:#D8C100;" d="M290.542,207.457c-7.407-7.408-14.815-14.816-22.224-22.224c-4.563-4.564-11.635,2.507-7.07,7.07
				c7.407,7.408,14.815,14.816,22.224,22.224C288.035,219.092,295.106,212.021,290.542,207.457L290.542,207.457z"/>
									<path style="fill:#D8C100;" d="M224.099,261.417c0-19.504,0-39.007,0-58.511c0-6.448-10-6.448-10,0c0,19.504,0,39.007,0,58.511
				C214.099,267.865,224.099,267.865,224.099,261.417L224.099,261.417z"/>
									<path style="fill:#D8C100;" d="M135.576,233.678c13.792-13.791,27.583-27.583,41.375-41.375c4.563-4.563-2.507-11.634-7.071-7.07
				c-13.792,13.791-27.583,27.583-41.375,41.375C123.941,231.171,131.012,238.242,135.576,233.678L135.576,233.678z"/>
									<path style="fill:#D8C100;" d="M99.02,146.338c19.504,0,39.008,0,58.512,0c6.449,0,6.449-10,0-10c-19.504,0-39.008,0-58.512,0
				C92.571,136.338,92.571,146.338,99.02,146.338L99.02,146.338z"/>
									<path style="fill:#D8C100;" d="M224.099,261.417c0-19.504,0-39.007,0-58.511c0-6.448-10-6.448-10,0c0,19.504,0,39.007,0,58.511
				C214.099,267.865,224.099,267.865,224.099,261.417L224.099,261.417z"/>
									<path style="fill:#D8C100;" d="M135.576,233.678c13.792-13.791,27.583-27.583,41.375-41.375c4.563-4.563-2.507-11.634-7.071-7.07
				c-13.792,13.791-27.583,27.583-41.375,41.375C123.941,231.171,131.012,238.242,135.576,233.678L135.576,233.678z"/>
									<path style="fill:#D8C100;" d="M140.297,115.006c5.492,2.275,10.983,4.55,16.475,6.824c2.523,1.045,5.495-1.11,6.15-3.492
				c0.791-2.875-0.976-5.108-3.492-6.15c-5.492-2.275-10.983-4.55-16.475-6.824c-2.523-1.045-5.495,1.11-6.15,3.492
				C136.014,111.73,137.781,113.964,140.297,115.006L140.297,115.006z"/>
									<path style="fill:#D8C100;" d="M143.455,180.33c5.492-2.274,10.983-4.549,16.475-6.824c2.516-1.042,4.283-3.275,3.492-6.15
				c-0.655-2.382-3.627-4.537-6.15-3.492c-5.492,2.274-10.983,4.549-16.475,6.824c-2.516,1.042-4.283,3.275-3.492,6.15
				C137.96,179.22,140.932,181.375,143.455,180.33L143.455,180.33z"/>
									<path style="fill:#D8C100;" d="M192.272,219.663c2.274-5.491,4.55-10.983,6.824-16.475c1.045-2.522-1.109-5.495-3.492-6.15
				c-2.875-0.791-5.108,0.977-6.15,3.492c-2.274,5.491-4.55,10.983-6.824,16.475c-1.045,2.522,1.109,5.495,3.492,6.15
				C188.997,223.946,191.23,222.179,192.272,219.663L192.272,219.663z"/>
									<path style="fill:#D8C100;" d="M255.097,217.005c-2.274-5.491-4.55-10.983-6.824-16.475c-1.042-2.516-3.275-4.283-6.15-3.492
				c-2.383,0.655-4.537,3.628-3.492,6.15c2.274,5.491,4.55,10.983,6.824,16.475c1.042,2.516,3.275,4.283,6.15,3.492
				C253.987,222.5,256.142,219.527,255.097,217.005L255.097,217.005z"/>
									<path style="fill:#D8C100;" d="M182.678,76.547c1.259,3.039,2.518,6.078,3.776,9.116c1.042,2.516,3.275,4.283,6.15,3.492
				c2.383-0.655,4.537-3.627,3.492-6.15c-1.259-3.039-2.518-6.078-3.776-9.116c-1.042-2.516-3.275-4.283-6.15-3.492
				C183.787,71.052,181.633,74.024,182.678,76.547L182.678,76.547z"/>
									<path style="fill:#D8C100;" d="M288.972,165.805c-3.173-1.314-6.345-2.628-9.518-3.942c-2.522-1.045-5.495,1.11-6.15,3.492
				c-0.791,2.875,0.977,5.108,3.492,6.15c3.173,1.314,6.345,2.628,9.518,3.942c2.522,1.045,5.495-1.11,6.15-3.492
				C293.255,169.081,291.487,166.847,288.972,165.805L288.972,165.805z"/>
				<path style="fill:none;stroke:#D8C100;stroke-width:10;stroke-miterlimit:10;" d="M260.535,156.005c0,13.255-10.744,24-24,24
		h-30.873c-13.256,0-24-10.745-24-24v-29.333c0-13.255,10.744-24,24-24h30.873c13.256,0,24,10.745,24,24V156.005z"/>
	</g>

    <g id="sun50" style="opacity:##SUN50##">
        <path style="fill:#D8C100;" d="M189.73,78.854c4.969,4.97,9.938,9.939,14.908,14.909c4.563,4.563,11.634-2.507,7.07-7.071
				c-4.969-4.97-9.938-9.939-14.908-14.909C192.237,67.219,185.167,74.29,189.73,78.854L189.73,78.854z"/>
        <path style="fill:#D8C100;" d="M159.02,124.956c13.197,0,26.394,0,39.59,0c6.448,0,6.448-10,0-10c-13.196,0-26.393,0-39.59,0
				C152.571,114.956,152.571,124.956,159.02,124.956L159.02,124.956z"/>
        <path style="fill:#D8C100;" d="M289.748,163.548c-5.012-5.012-10.024-10.024-15.037-15.037c-4.563-4.563-11.635,2.507-7.07,7.071
				c5.012,5.012,10.024,10.024,15.037,15.037C287.241,175.183,294.313,168.112,289.748,163.548L289.748,163.548z"/>
        <path style="fill:#D8C100;" d="M245.266,202.201c0-13.196,0-26.392,0-39.588c0-6.449-10-6.449-10,0c0,13.196,0,26.392,0,39.588
				C235.266,208.649,245.266,208.649,245.266,202.201L245.266,202.201z"/>
        <path style="fill:#D8C100;" d="M184.896,183.576c9.332-9.331,18.663-18.663,27.994-27.994c4.564-4.564-2.507-11.635-7.07-7.071
				c-9.332,9.332-18.663,18.663-27.995,27.995C173.262,181.069,180.333,188.141,184.896,183.576L184.896,183.576z"/>
        <path style="fill:#D8C100;" d="M159.02,124.956c13.197,0,26.394,0,39.59,0c6.448,0,6.448-10,0-10c-13.196,0-26.393,0-39.59,0
				C152.571,114.956,152.571,124.956,159.02,124.956L159.02,124.956z"/>
        <path style="fill:#D8C100;" d="M245.266,202.201c0-13.196,0-26.392,0-39.588c0-6.449-10-6.449-10,0c0,13.196,0,26.392,0,39.588
				C235.266,208.649,245.266,208.649,245.266,202.201L245.266,202.201z"/>
        <path style="fill:#D8C100;" d="M184.896,183.576c9.332-9.331,18.663-18.663,27.994-27.994c4.564-4.564-2.507-11.635-7.07-7.071
				c-9.332,9.332-18.663,18.663-27.995,27.995C173.262,181.069,180.333,188.141,184.896,183.576L184.896,183.576z"/>
        <path style="fill:#D8C100;" d="M186.519,103.698c3.716,1.54,7.431,3.079,11.146,4.618c2.522,1.045,5.495-1.11,6.15-3.492
				c0.791-2.875-0.977-5.108-3.492-6.15c-3.716-1.54-7.431-3.079-11.146-4.618c-2.522-1.045-5.495,1.11-6.15,3.492
				C182.235,100.422,184.003,102.656,186.519,103.698L186.519,103.698z"/>
        <path style="fill:#D8C100;" d="M189.515,147.896c3.716-1.539,7.431-3.078,11.146-4.617c2.516-1.042,4.283-3.275,3.492-6.15
				c-0.655-2.382-3.628-4.537-6.15-3.492c-3.716,1.539-7.431,3.078-11.146,4.617c-2.516,1.042-4.283,3.275-3.492,6.15
				C184.02,146.787,186.992,148.941,189.515,147.896L189.515,147.896z"/>
        <path style="fill:#D8C100;" d="M223.675,173.38c1.539-3.715,3.078-7.431,4.617-11.147c1.045-2.523-1.109-5.495-3.492-6.15
				c-2.875-0.791-5.108,0.976-6.15,3.492c-1.539,3.715-3.078,7.431-4.617,11.147c-1.045,2.523,1.109,5.495,3.492,6.15
				C220.399,177.664,222.633,175.896,223.675,173.38L223.675,173.38z"/>
        <path style="fill:#D8C100;" d="M266.182,170.722c-1.539-3.716-3.079-7.432-4.618-11.147c-1.042-2.516-3.275-4.283-6.15-3.492
				c-2.382,0.655-4.537,3.628-3.492,6.15c1.539,3.716,3.079,7.432,4.618,11.147c1.042,2.516,3.275,4.283,6.15,3.492
				C265.071,176.217,267.227,173.245,266.182,170.722L266.182,170.722z"/>
        <path style="fill:#D8C100;" d="M214.063,76.547c0.852,2.056,1.704,4.112,2.556,6.168c1.042,2.516,3.275,4.283,6.15,3.492
				c2.382-0.655,4.537-3.628,3.492-6.15c-0.852-2.056-1.704-4.112-2.556-6.168c-1.042-2.516-3.275-4.283-6.15-3.492
				C215.174,71.052,213.019,74.025,214.063,76.547L214.063,76.547z"/>
        <path style="fill:#D8C100;" d="M287.973,134.951c-2.146-0.889-4.294-1.778-6.44-2.667c-2.522-1.045-5.495,1.11-6.15,3.492
				c-0.791,2.875,0.977,5.108,3.492,6.15c2.146,0.889,4.294,1.778,6.44,2.667c2.522,1.045,5.495-1.11,6.15-3.492
				C292.256,138.226,290.488,135.993,287.973,134.951L287.973,134.951z"/>
        <path style="fill:none;stroke:#D8C100;stroke-width:10;stroke-miterlimit:10;" d="M264.783,128.638
		c0,7.845-6.361,14.206-14.206,14.206h-18.275c-7.845,0-14.206-6.36-14.206-14.206v-17.363c0-7.846,6.361-14.206,14.206-14.206
		h18.275c7.845,0,14.206,6.36,14.206,14.206V128.638z"/>
    </g>
	
    <!-- Regen -->
	<g id="rain25" style="opacity:##RAIN25##;fill:#c0c0ff;">
        <circle style="" cx="173.792" cy="170.955" r="5" />
        <circle style="" cx="240" cy="240" r="5" />
        <circle style="" cx="144.302" cy="192.033" r="5" />
        <circle style="" cx="147.811" cy="155.955" r="5" />
        <circle style="" cx="250" cy="260" r="5" />
        <circle style="" cx="118.321" cy="177.033" r="5" />
        <circle style="" cx="122.312" cy="200.122" r="5" />
        <circle style="" cx="149.312" cy="214.122" r="5" />
        <circle style="" cx="227.112" cy="171.515" r="5" />
        <circle style="" cx="223.622" cy="170" r="5" />
        <circle style="" cx="197.622" cy="192.594" r="5" />
        <circle style="" cx="201.132" cy="156.515" r="5" />
        <circle style="" cx="175.632" cy="200.683" r="5" />
        <circle style="" cx="202.632" cy="214.683" r="5" />
        <circle style="" cx="98.261" cy="241.236" r="5" />
        <circle style="" cx="119.887" cy="234.875" r="5" />
        <circle style="" cx="148.863" cy="244.972" r="5" />
        <circle style="" cx="124.562" cy="255.328" r="5" />
        <circle style="" cx="255.358" cy="155.515" r="5" />
        <circle style="" cx="230.878" cy="198.683" r="5" />
        <circle style="" cx="205.122" cy="243.6" r="5" />
        <circle style="" cx="171.632" cy="237.742" r="5" />
        <circle style="" cx="177.872" cy="257.551" r="5" />
        <circle style="" cx="94.177" cy="217.807" r="5" />
        <circle style="" cx="121.311" cy="142.226" r="5" />
        <circle style="" cx="95.818" cy="186.393" r="5" />
    </g>

    <g id="rain50" style="opacity:##RAIN50##;fill:#c0c0ff;">
        <path style="" d="M173.792,170.955c-5.5,9.526-11,19.052-16.5,28.579c-3.23,5.595,5.412,10.628,8.635,5.047     c5.5-9.526,11-19.053,16.5-28.579C185.657,170.407,177.015,165.373,173.792,170.955L173.792,170.955z" />
        <path style="" d="M170.302,147c-5.5,9.526-11,19.052-16.5,28.579c-3.23,5.595,5.412,10.628,8.635,5.047     c5.5-9.526,11-19.052,16.5-28.579C182.167,146.452,173.524,141.418,170.302,147L170.302,147z" />
        <path style="" d="M144.302,192.033c-5.5,9.526-11,19.053-16.5,28.579c-3.23,5.595,5.412,10.628,8.635,5.047     c5.5-9.526,11-19.053,16.5-28.579C156.167,191.485,147.524,186.452,144.302,192.033L144.302,192.033z" />
        <path style="" d="M147.811,155.955c-5.5,9.526-11,19.052-16.5,28.579c-3.23,5.595,5.413,10.628,8.635,5.047     c5.5-9.526,11-19.052,16.5-28.579C159.676,155.407,151.033,150.373,147.811,155.955L147.811,155.955z" />
        <path style="" d="M144.321,132c-5.5,9.526-11,19.053-16.5,28.579c-3.23,5.595,5.412,10.628,8.635,5.047     c5.5-9.526,11-19.053,16.5-28.579C156.186,131.452,147.543,126.418,144.321,132L144.321,132z" />
        <path style="" d="M118.321,177.033c-5.5,9.526-11,19.053-16.5,28.579c-3.23,5.595,5.413,10.628,8.635,5.047     c5.5-9.526,11-19.053,16.5-28.579C130.186,176.485,121.543,171.452,118.321,177.033L118.321,177.033z" />
        <path style="" d="M122.312,200.122c-5.5,9.526-11,19.053-16.5,28.579c-3.23,5.595,5.412,10.628,8.635,5.047     c5.5-9.526,11-19.053,16.5-28.579C134.177,199.574,125.534,194.541,122.312,200.122L122.312,200.122z" />
        <path style="" d="M149.312,214.122c-5.5,9.526-11,19.053-16.5,28.579c-3.23,5.595,5.412,10.628,8.635,5.047     c5.5-9.526,11-19.053,16.5-28.579C161.177,213.574,152.534,208.541,149.312,214.122L149.312,214.122z" />
        <path style="" d="M227.112,171.515c-5.5,9.526-11,19.052-16.5,28.579c-3.23,5.595,5.412,10.628,8.635,5.047     c5.5-9.526,11-19.053,16.5-28.579C238.978,170.967,230.335,165.934,227.112,171.515L227.112,171.515z" />
        <path style="" d="M223.622,147.561c-5.5,9.526-11,19.052-16.5,28.579c-3.23,5.595,5.412,10.628,8.635,5.047     c5.5-9.526,11-19.053,16.5-28.579C235.487,147.013,226.845,141.979,223.622,147.561L223.622,147.561z" />
        <path style="" d="M197.622,192.594c-5.5,9.526-11,19.053-16.5,28.579c-3.23,5.595,5.412,10.628,8.635,5.047     c5.5-9.526,11-19.053,16.5-28.579C209.487,192.046,200.845,187.013,197.622,192.594L197.622,192.594z" />
        <path style="" d="M201.132,156.515c-5.5,9.526-11,19.052-16.5,28.579c-3.23,5.595,5.412,10.628,8.635,5.047     c5.5-9.526,11-19.052,16.5-28.579C212.997,155.967,204.354,150.934,201.132,156.515L201.132,156.515z" />
        <path style="" d="M175.632,200.683c-5.5,9.526-11,19.053-16.5,28.579c-3.23,5.595,5.412,10.628,8.635,5.047     c5.5-9.526,11-19.053,16.5-28.579C187.497,200.135,178.855,195.102,175.632,200.683L175.632,200.683z" />
    </g>

    <g id="rain100" style="opacity:##RAIN100##;fill:#c0c0ff;">
        <path style="" d="M173.792,170.955c-5.5,9.526-11,19.052-16.5,28.579c-3.23,5.595,5.412,10.628,8.635,5.047     c5.5-9.526,11-19.053,16.5-28.579C185.657,170.407,177.015,165.373,173.792,170.955L173.792,170.955z" />
        <path style="" d="M170.302,147c-5.5,9.526-11,19.052-16.5,28.579c-3.23,5.595,5.412,10.628,8.635,5.047     c5.5-9.526,11-19.052,16.5-28.579C182.167,146.452,173.524,141.418,170.302,147L170.302,147z" />
        <path style="" d="M144.302,192.033c-5.5,9.526-11,19.053-16.5,28.579c-3.23,5.595,5.412,10.628,8.635,5.047     c5.5-9.526,11-19.053,16.5-28.579C156.167,191.485,147.524,186.452,144.302,192.033L144.302,192.033z" />
        <path style="" d="M147.811,155.955c-5.5,9.526-11,19.052-16.5,28.579c-3.23,5.595,5.413,10.628,8.635,5.047     c5.5-9.526,11-19.052,16.5-28.579C159.676,155.407,151.033,150.373,147.811,155.955L147.811,155.955z" />
        <path style="" d="M144.321,132c-5.5,9.526-11,19.053-16.5,28.579c-3.23,5.595,5.412,10.628,8.635,5.047     c5.5-9.526,11-19.053,16.5-28.579C156.186,131.452,147.543,126.418,144.321,132L144.321,132z" />
        <path style="" d="M118.321,177.033c-5.5,9.526-11,19.053-16.5,28.579c-3.23,5.595,5.413,10.628,8.635,5.047     c5.5-9.526,11-19.053,16.5-28.579C130.186,176.485,121.543,171.452,118.321,177.033L118.321,177.033z" />
        <path style="" d="M122.312,200.122c-5.5,9.526-11,19.053-16.5,28.579c-3.23,5.595,5.412,10.628,8.635,5.047     c5.5-9.526,11-19.053,16.5-28.579C134.177,199.574,125.534,194.541,122.312,200.122L122.312,200.122z" />
        <path style="" d="M149.312,214.122c-5.5,9.526-11,19.053-16.5,28.579c-3.23,5.595,5.412,10.628,8.635,5.047     c5.5-9.526,11-19.053,16.5-28.579C161.177,213.574,152.534,208.541,149.312,214.122L149.312,214.122z" />
        <path style="" d="M227.112,171.515c-5.5,9.526-11,19.052-16.5,28.579c-3.23,5.595,5.412,10.628,8.635,5.047     c5.5-9.526,11-19.053,16.5-28.579C238.978,170.967,230.335,165.934,227.112,171.515L227.112,171.515z" />
        <path style="" d="M223.622,147.561c-5.5,9.526-11,19.052-16.5,28.579c-3.23,5.595,5.412,10.628,8.635,5.047     c5.5-9.526,11-19.053,16.5-28.579C235.487,147.013,226.845,141.979,223.622,147.561L223.622,147.561z" />
        <path style="" d="M197.622,192.594c-5.5,9.526-11,19.053-16.5,28.579c-3.23,5.595,5.412,10.628,8.635,5.047     c5.5-9.526,11-19.053,16.5-28.579C209.487,192.046,200.845,187.013,197.622,192.594L197.622,192.594z" />
        <path style="" d="M201.132,156.515c-5.5,9.526-11,19.052-16.5,28.579c-3.23,5.595,5.412,10.628,8.635,5.047     c5.5-9.526,11-19.052,16.5-28.579C212.997,155.967,204.354,150.934,201.132,156.515L201.132,156.515z" />
        <path style="" d="M175.632,200.683c-5.5,9.526-11,19.053-16.5,28.579c-3.23,5.595,5.412,10.628,8.635,5.047     c5.5-9.526,11-19.053,16.5-28.579C187.497,200.135,178.855,195.102,175.632,200.683L175.632,200.683z" />
        <path style="" d="M202.632,214.683c-5.5,9.526-11,19.053-16.5,28.579c-3.23,5.595,5.412,10.628,8.635,5.047     c5.5-9.526,11-19.053,16.5-28.579C214.497,214.135,205.854,209.102,202.632,214.683L202.632,214.683z" />
        <path style="" d="M98.261,241.236c-5.813,9.338-11.625,18.677-17.438,28.016c-3.418,5.491,5.236,10.508,8.635,5.047     c5.813-9.338,11.625-18.677,17.438-28.016C110.313,240.792,101.66,235.775,98.261,241.236L98.261,241.236z" />
        <path style="" d="M119.887,234.875c-5.5,9.525-11,19.052-16.5,28.578c-3.23,5.595,5.412,10.628,8.635,5.047     c5.5-9.525,11-19.052,16.5-28.578C131.752,234.327,123.11,229.294,119.887,234.875L119.887,234.875z" />
        <path style="" d="M148.863,244.972c-5.5,9.526-11,19.053-16.5,28.579c-3.23,5.595,5.413,10.628,8.635,5.047     c5.5-9.526,11-19.053,16.5-28.579C160.728,244.424,152.085,239.391,148.863,244.972L148.863,244.972z" />
        <path style="" d="M124.562,255.328c-5.5,9.526-11,19.053-16.5,28.579c-3.23,5.595,5.412,10.628,8.635,5.047     c5.5-9.526,11-19.053,16.5-28.579C136.427,254.78,127.784,249.747,124.562,255.328L124.562,255.328z" />
        <path style="" d="M255.358,155.515c-5.5,9.526-11,19.052-16.5,28.579c-3.23,5.595,5.412,10.628,8.635,5.047     c5.5-9.526,11-19.052,16.5-28.579C267.224,154.967,258.581,149.934,255.358,155.515L255.358,155.515z" />
        <path style="" d="M230.878,198.683c-5.5,9.526-11,19.053-16.5,28.579c-3.23,5.595,5.412,10.628,8.635,5.047     c5.5-9.526,11-19.053,16.5-28.579C242.743,198.135,234.101,193.102,230.878,198.683L230.878,198.683z" />
        <path style="" d="M205.122,243.6c-4.313,7.472-8.627,14.943-12.94,22.415c-3.23,5.595,5.412,10.628,8.635,5.047     c4.313-7.472,8.627-14.943,12.94-22.415C216.987,243.052,208.345,238.018,205.122,243.6L205.122,243.6z" />
        <path style="" d="M171.632,237.742c-5.5,9.525-11,19.052-16.5,28.578c-3.23,5.595,5.412,10.628,8.635,5.047     c5.5-9.525,11-19.052,16.5-28.578C183.497,237.194,174.855,232.161,171.632,237.742L171.632,237.742z" />
        <path style="" d="M177.872,257.551c-4.948,8.57-9.896,17.141-14.845,25.712c-3.23,5.595,5.413,10.628,8.635,5.047     c4.948-8.57,9.896-17.142,14.845-25.712C189.737,257.003,181.095,251.97,177.872,257.551L177.872,257.551z" />
        <path style="" d="M94.177,217.807c-5.947,9.254-11.894,18.507-17.841,27.761c-3.498,5.442,5.162,10.451,8.635,5.047     c5.947-9.253,11.894-18.507,17.841-27.761C106.309,217.411,97.65,212.402,94.177,217.807L94.177,217.807z" />
        <path style="" d="M121.311,142.226c-5.5,9.526-11,19.053-16.5,28.579c-3.23,5.595,5.413,10.628,8.635,5.047     c5.5-9.526,11-19.053,16.5-28.579C133.176,141.678,124.533,136.644,121.311,142.226L121.311,142.226z" />
        <path style="" d="M95.818,186.393c-5.5,9.526-11,19.053-16.5,28.58c-3.23,5.595,5.413,10.628,8.635,5.047     c5.5-9.526,11-19.053,16.5-28.58C107.683,185.845,99.04,180.811,95.818,186.393L95.818,186.393z" /> 
    </g>


    <!-- Wolken -->
    <g id="clouds100" style="opacity:##CLOUDS100##;fill:###DARKNESS##;stroke:###DARKNESS##">
        <path style="stroke-width:13.0628;stroke-miterlimit:10;" d="M196.204,141.073   c0,4.329-3.148,7.838-7.032,7.838H134.66c-3.885,0-7.035-3.51-7.035-7.838V84.25c0-4.329,3.15-7.838,7.035-7.838h54.512   c3.884,0,7.032,3.509,7.032,7.838V141.073z" />
        <path style="stroke-width:13.0628;stroke-miterlimit:10;" d="M93.008,121.479   c0,4.329,3.509,7.838,7.838,7.838h36.576c4.328,0,7.837-3.509,7.837-7.838V99.272c0-4.329-3.51-7.838-7.837-7.838h-36.576   c-4.329,0-7.838,3.509-7.838,7.838V121.479z" />
        <path style="stroke-width:13.0628;stroke-miterlimit:10;" d="M77.333,121.479   c0-4.328,3.509-7.837,7.838-7.837h45.067c4.328,0,7.837,3.509,7.837,7.837v12.41c0,4.329-3.51,7.838-7.837,7.838H85.171   c-4.329,0-7.838-3.509-7.838-7.838V121.479z" />
        <path style="stroke-width:13.0628;stroke-miterlimit:10;" d="M248.674,148.912   c0,4.328-3.148,7.837-7.033,7.837h-54.512c-3.885,0-7.035-3.509-7.035-7.837V92.088c0-4.329,3.15-7.838,7.035-7.838h54.512   c3.885,0,7.033,3.509,7.033,7.838V148.912z" />
        <path style="stroke-width:13.0628;stroke-miterlimit:10;" d="M232.781,142.379   c0,4.329,3.51,7.838,7.837,7.838h36.576c4.329,0,7.838-3.509,7.838-7.838v-22.207c0-4.328-3.509-7.837-7.838-7.837h-36.576   c-4.327,0-7.837,3.51-7.837,7.837V142.379z" />
        <path style="stroke-width:13.0628;stroke-miterlimit:10;" d="M201.648,158.056   c0,4.328-3.149,7.837-7.033,7.837h-54.513c-3.884,0-7.034-3.509-7.034-7.837v-56.824c0-4.329,3.149-7.838,7.034-7.838h54.513   c3.884,0,7.033,3.509,7.033,7.838V158.056z" />
    </g>

	<g id="clouds50" style="opacity:##CLOUDS50##">
       <path style="fill:#ffffff;stroke:#ffffff;stroke-width:10;stroke-miterlimit:10;" d="M87.833,121.44
		c0,4.429,3.591,8.019,8.019,8.019h37.421c4.428,0,8.019-3.59,8.019-8.019v-22.72c0-4.429-3.591-8.02-8.019-8.02H95.852
		c-4.428,0-8.019,3.591-8.019,8.02V121.44z"/> <!-- ok -->
        <path style="fill:#ffffff;stroke:#ffffff;stroke-width:10;stroke-miterlimit:10;" d="M74.795,123.111
		c0-4.428,3.59-8.019,8.019-8.019h46.108c4.428,0,8.019,3.591,8.019,8.019v12.696c0,4.429-3.591,8.02-8.019,8.02H82.814
		c-4.429,0-8.019-3.591-8.019-8.02V123.111z"/> <!-- ok -->
        <path style="fill:#ffffff;stroke:#ffffff;stroke-width:10;stroke-miterlimit:10;" d="M249.672,195.387
		c0,3.624-2.635,6.561-5.887,6.561h-45.621c-3.251,0-5.887-2.937-5.887-6.561v-47.555c0-3.622,2.636-6.559,5.887-6.559h45.621
		c3.252,0,5.887,2.937,5.887,6.559V195.387z"/>
        <path style="fill:#ffffff;stroke:#ffffff;stroke-width:10;stroke-miterlimit:10;" d="M233.744,185.103
		c0,4.428,3.59,8.02,8.019,8.02h37.421c4.43,0,8.02-3.592,8.02-8.02v-22.721c0-4.428-3.59-8.019-8.02-8.019h-37.421
		c-4.429,0-8.019,3.591-8.019,8.019V185.103z"/>
        <path style="fill:#ffffff;stroke:#ffffff;stroke-width:10;stroke-miterlimit:10;" d="M178.49,195.69
		c0,3.683,2.986,6.669,6.669,6.669h31.122c3.682,0,6.668-2.986,6.668-6.669v-18.896c0-3.683-2.986-6.668-6.668-6.668h-31.122
		c-3.683,0-6.669,2.985-6.669,6.668V195.69z"/> 
        <path style="fill:#ffffff;stroke:#ffffff;stroke-width:10;stroke-miterlimit:10;" d="M148.027,115.283
		c0-4.428-3.591-8.018-8.019-8.018h-37.421c-4.428,0-8.019,3.59-8.019,8.018v22.721c0,4.428,3.591,8.019,8.019,8.019h37.421
		c4.428,0,8.019-3.591,8.019-8.019V115.283z"/> <!-- ok -->
        <path style="fill:#ffffff;stroke:#ffffff;stroke-width:10;stroke-miterlimit:10;" d="M159.814,122.592
		c0,4.428-3.59,8.018-8.019,8.018h-46.108c-4.428,0-8.019-3.59-8.019-8.018v-12.697c0-4.428,3.591-8.02,8.019-8.02h46.108
		c4.429,0,8.019,3.592,8.019,8.02V122.592z"/>
        <path style="fill:#ffffff;stroke:#ffffff;stroke-width:10;stroke-miterlimit:10;" d="M228.162,203.828
		c0,3.684,2.986,6.669,6.668,6.669h31.122c3.683,0,6.669-2.985,6.669-6.669v-18.895c0-3.684-2.986-6.669-6.669-6.669H234.83
		c-3.682,0-6.668,2.985-6.668,6.669V203.828z"/> <!-- ok -->
    </g>


</svg>