<?xml version="1.0" encoding="iso-8859-1"?>
<!-- Alle Icons sind unter einer Creative Commons Lizenz vom Typ Namensnennung - Weitergabe unter gleichen Bedingungen 3.0 Deutschland zugänglich.
 Um eine Kopie dieser Lizenz einzusehen, konsultieren Sie http://creativecommons.org/licenses/by-sa/3.0/de/ 
 oder wenden Sie sich brieflich an Creative Commons, Postfach 1866, Mountain View, California, 94042, USA. -->
<svg version="1.1" xmlns="http://www.w3.org/2000/svg" xmlns:xlink="http://www.w3.org/1999/xlink" x="0px" y="0px" width="100px"
	 height="30px" viewBox="-200 50 700 260" style="enable-background:new 0 0 361 361;" xml:space="preserve">
	<!-- Pfosten -->
	<path style="fill:#FFFFFF;" d="M282.148,96.03c0,49.764,0,99.527,0,149.291c0,13.782,0,27.563,0,41.346c0,6.448,10,6.448,10,0
		c0-49.764,0-99.527,0-149.291c0-13.782,0-27.564,0-41.346C292.148,89.582,282.148,89.582,282.148,96.03L282.148,96.03z"/>

		<!-- Sack -->
<!--	<g id="speed" transform="scale(##SCALE##) translate(##TRANS_X## ##TRANS_Y##) rotate(##ROT## 276.254 94.665)"> -->
	<g id="speed" transform="rotate(##ROT## 276.254 94.665)">
		<path style="stroke:#E51400;fill:#E51400;stroke-linejoin:round;stroke-width:10" d="M276.254,94.665 l-46,48 l-125.162,13.128 l-9.747,-28.817 l116.909,-51.311z" />
		
		<!-- Weißer Balken #1 -->
		<path style="stroke:#ffffff;fill:#ffffff;stroke-width:10" d="M200.243,145.813L184.331,87.86L207.484,77.683L225,143.216z" />
		<!-- Weißer Balken #2" -->
		<path style="stroke:#ffffff;fill:#ffffff;stroke-width:10" d="M130.972,153.078L119.548,116.337L142.701,106.16L155.729,150.482z" />
	</g>
	<!--
	<g id="direction" transform="rotate(##DIR## 100 260)">
		<path style="fill:none;stroke:#FFFF00;stroke-width:10;stroke-miterlimit:10;" d="M71.567,247.256
			c-1.65,0-2.987-0.418-2.988-0.934l0-16.162c0-0.516,1.338-0.934,2.987-0.934h58.252c1.649,0,2.987,0.418,2.987,0.934l0,16.162
			c0,0.516-1.337,0.934-2.986,0.933791.567,247.256z"/>
		<path style="fill:#FFFF00;" d="M141.202,245.131c-15.071,19.719-30.142,39.438-45.213,59.156c2.878,0,5.756,0,8.635,0
			c-15.071-19.719-30.142-39.438-45.213-59.156c-1.439,2.508-2.878,5.016-4.317,7.523c30.142,0,60.285,0,90.427,0
			c6.449,0,6.449-10,0-10c-30.142,0-60.285,0-90.427,0c-3.435,0-6.707,4.396-4.317,7.523
			c15.071,19.719,30.142,39.438,45.213,59.156c2.429,3.178,6.206,3.178,8.635,0c15.071-19.719,30.142-39.438,45.213-59.156
			C153.754,245.053,145.062,240.081,141.202,245.131z"/>
	</g> -->
	<text style="font-family:Segoe UI;stroke:#ffffff;fill:#ffffff;" font-size="100px" x="0" y="301">##WINDDIR##</text>
</svg>
